<svg width="24" height="21" viewBox="0 0 24 21" fill="none" xmlns="http://www.w3.org/2000/svg">
<path d="M16.6514 0C17.538 2.54649e-05 18.4163 0.174279 19.2354 0.513672C20.0542 0.852981 20.7981 1.35071 21.4248 1.97754C22.0519 2.60433 22.5493 3.34889 22.8887 4.16797C23.2281 4.98708 23.4033 5.86531 23.4033 6.75195C23.4033 7.63855 23.228 8.51687 22.8887 9.33594C22.5493 10.1549 22.0518 10.8996 21.4248 11.5264L21.4238 11.5254L12.585 20.3652C12.0968 20.8534 11.3055 20.8534 10.8174 20.3652L1.97754 11.5254C0.711518 10.2593 3.38418e-05 8.54241 0 6.75195C3.37864e-05 4.96145 0.711457 3.24362 1.97754 1.97754C3.24354 0.711745 4.96072 0.00105977 6.75098 0.000976562C8.54144 0.001008 10.2593 0.711516 11.5254 1.97754L11.7012 2.15332L11.877 1.97754C12.5037 1.35055 13.2484 0.853034 14.0674 0.513672C14.8865 0.174322 15.7648 0 16.6514 0Z" fill="#E9E9E9"/>
</svg>
